<?xml version="1.0" encoding="UTF-8" standalone="no"?>
<svg width="400" height="400" viewBox="0 0 400 400" xmlns="http://www.w3.org/2000/svg">
  <rect width="400" height="400" fill="#f8f9fa"/>
  
  <!-- Screwdriver 1 -->
  <rect x="100" y="100" width="200" height="20" rx="5" ry="5" fill="#666"/>
  <rect x="300" y="100" width="40" height="20" rx="5" ry="5" fill="#0066cc"/>
  <rect x="60" y="100" width="40" height="20" rx="10" ry="10" fill="#999"/>
  
  <!-- Screwdriver 2 -->
  <rect x="100" y="130" width="200" height="15" rx="5" ry="5" fill="#666"/>
  <rect x="300" y="130" width="30" height="15" rx="5" ry="5" fill="#ff3333"/>
  <rect x="70" y="130" width="30" height="15" rx="7.5" ry="7.5" fill="#999"/>
  
  <!-- Screwdriver 3 -->
  <rect x="100" y="155" width="200" height="10" rx="5" ry="5" fill="#666"/>
  <rect x="300" y="155" width="20" height="10" rx="5" ry="5" fill="#4dabf7"/>
  <rect x="80" y="155" width="20" height="10" rx="5" ry="5" fill="#999"/>
  
  <!-- Screwdriver 4 -->
  <rect x="100" y="175" width="200" height="8" rx="4" ry="4" fill="#666"/>
  <rect x="300" y="175" width="15" height="8" rx="4" ry="4" fill="#4caf50"/>
  <rect x="85" y="175" width="15" height="8" rx="4" ry="4" fill="#999"/>
  
  <!-- Screwdriver 5 -->
  <rect x="100" y="193" width="200" height="6" rx="3" ry="3" fill="#666"/>
  <rect x="300" y="193" width="10" height="6" rx="3" ry="3" fill="#ff9800"/>
  <rect x="90" y="193" width="10" height="6" rx="3" ry="3" fill="#999"/>
  
  <!-- Case outline -->
  <rect x="80" y="220" width="240" height="60" rx="5" ry="5" fill="#eee" stroke="#999" stroke-width="2"/>
  <rect x="90" y="230" width="220" height="40" rx="3" ry="3" fill="#f5f5f5" stroke="#ccc" stroke-width="1"/>
  
  <!-- Product name -->
  <text x="200" y="310" font-family="Arial, sans-serif" font-size="24" text-anchor="middle" fill="#333">
    Precision Screwdriver Set
  </text>
  <text x="200" y="340" font-family="Arial, sans-serif" font-size="18" text-anchor="middle" fill="#666">
    Professional Repair Tools
  </text>
</svg>
