<?xml version="1.0" encoding="UTF-8"?>
<svg width="300" height="300" viewBox="0 0 300 300" fill="none" xmlns="http://www.w3.org/2000/svg">
  <rect width="300" height="300" fill="#F5F5F5"/>
  <rect x="50" y="70" width="200" height="160" rx="8" fill="#E0E0E0"/>
  <rect x="60" y="80" width="180" height="140" rx="4" fill="#F0F0F0"/>
  
  <!-- Screwdriver -->
  <rect x="80" y="100" width="140" height="20" rx="2" fill="#4A00E0"/>
  <rect x="80" y="100" width="30" height="20" rx="2" fill="#8E2DE2"/>
  
  <!-- Pliers -->
  <path d="M100 140 L120 160 L140 140 L120 130 Z" fill="#4A00E0"/>
  <path d="M140 140 L160 160 L180 140 L160 130 Z" fill="#4A00E0"/>
  <rect x="120" y="130" width="40" height="10" rx="2" fill="#8E2DE2"/>
  
  <!-- Tweezers -->
  <path d="M90 180 L110 190 L110 200 L90 190 Z" fill="#4A00E0"/>
  <path d="M170 180 L150 190 L150 200 L170 190 Z" fill="#4A00E0"/>
  <rect x="110" y="190" width="40" height="5" rx="2" fill="#8E2DE2"/>
  
  <text x="150" y="240" text-anchor="middle" font-family="Arial" font-size="14" fill="#333333">Repair Tool Kit</text>
</svg>
