<svg width="60" height="60" viewBox="0 0 60 60" fill="none" xmlns="http://www.w3.org/2000/svg">
  <rect width="60" height="60" rx="8" fill="#4285F4"/>
  <path d="M45 30c0-2.8-0.5-5.5-1.4-8H30v15h8.6c-0.4 2.1-1.5 4-2.9 5.4v9h9.2c5.4-5 8.7-12.3 8.7-21z" fill="white"/>
  <path d="M30 50c4 0 7.5-1.3 10.2-3.5l-9.2-9c-2.5 1.7-5.7 2.7-9 2.7-6.9 0-12.8-4.7-14.9-11H6.3v9.2C9 45.3 19 50 30 50z" fill="white"/>
  <path d="M15.1 31.5c-0.5-1.5-0.8-3.1-0.8-4.8s0.3-3.3 0.8-4.8V12H6.3C4.2 16.2 3 21.3 3 26.7s1.2 10.5 3.3 14.8l8.8-6.5z" fill="white"/>
  <path d="M30 10.2c3.4 0 6.5 1.2 8.9 3.5l6.7-6.7C39.5 4.2 35 2.7 30 2.7 19 2.7 9 7.7 6.3 17.3l8.8 6.8c2.1-6.3 8-11 14.9-11z" fill="white"/>
  <text x="30" y="58" text-anchor="middle" fill="white" font-family="Arial, sans-serif" font-size="6" font-weight="bold">GOOGLE</text>
</svg>
