<?xml version="1.0" encoding="UTF-8" standalone="no"?>
<svg width="400" height="400" viewBox="0 0 400 400" xmlns="http://www.w3.org/2000/svg">
  <rect width="400" height="400" fill="#f8f9fa"/>
  
  <!-- Keyboard outline -->
  <rect x="50" y="100" width="300" height="150" rx="5" ry="5" fill="#e0e0e0" stroke="#999" stroke-width="2"/>
  
  <!-- Keys -->
  <g fill="#f5f5f5" stroke="#ccc" stroke-width="1">
    <!-- Row 1 -->
    <rect x="60" y="110" width="20" height="20" rx="2" ry="2"/>
    <rect x="85" y="110" width="20" height="20" rx="2" ry="2"/>
    <rect x="110" y="110" width="20" height="20" rx="2" ry="2"/>
    <rect x="135" y="110" width="20" height="20" rx="2" ry="2"/>
    <rect x="160" y="110" width="20" height="20" rx="2" ry="2"/>
    <rect x="185" y="110" width="20" height="20" rx="2" ry="2"/>
    <rect x="210" y="110" width="20" height="20" rx="2" ry="2"/>
    <rect x="235" y="110" width="20" height="20" rx="2" ry="2"/>
    <rect x="260" y="110" width="20" height="20" rx="2" ry="2"/>
    <rect x="285" y="110" width="20" height="20" rx="2" ry="2"/>
    <rect x="310" y="110" width="30" height="20" rx="2" ry="2"/>
    
    <!-- Row 2 -->
    <rect x="60" y="135" width="30" height="20" rx="2" ry="2"/>
    <rect x="95" y="135" width="20" height="20" rx="2" ry="2"/>
    <rect x="120" y="135" width="20" height="20" rx="2" ry="2"/>
    <rect x="145" y="135" width="20" height="20" rx="2" ry="2"/>
    <rect x="170" y="135" width="20" height="20" rx="2" ry="2"/>
    <rect x="195" y="135" width="20" height="20" rx="2" ry="2"/>
    <rect x="220" y="135" width="20" height="20" rx="2" ry="2"/>
    <rect x="245" y="135" width="20" height="20" rx="2" ry="2"/>
    <rect x="270" y="135" width="20" height="20" rx="2" ry="2"/>
    <rect x="295" y="135" width="45" height="20" rx="2" ry="2"/>
    
    <!-- Row 3 -->
    <rect x="60" y="160" width="35" height="20" rx="2" ry="2"/>
    <rect x="100" y="160" width="20" height="20" rx="2" ry="2"/>
    <rect x="125" y="160" width="20" height="20" rx="2" ry="2"/>
    <rect x="150" y="160" width="20" height="20" rx="2" ry="2"/>
    <rect x="175" y="160" width="20" height="20" rx="2" ry="2"/>
    <rect x="200" y="160" width="20" height="20" rx="2" ry="2"/>
    <rect x="225" y="160" width="20" height="20" rx="2" ry="2"/>
    <rect x="250" y="160" width="20" height="20" rx="2" ry="2"/>
    <rect x="275" y="160" width="65" height="20" rx="2" ry="2"/>
    
    <!-- Row 4 -->
    <rect x="60" y="185" width="45" height="20" rx="2" ry="2"/>
    <rect x="110" y="185" width="20" height="20" rx="2" ry="2"/>
    <rect x="135" y="185" width="20" height="20" rx="2" ry="2"/>
    <rect x="160" y="185" width="20" height="20" rx="2" ry="2"/>
    <rect x="185" y="185" width="20" height="20" rx="2" ry="2"/>
    <rect x="210" y="185" width="20" height="20" rx="2" ry="2"/>
    <rect x="235" y="185" width="20" height="20" rx="2" ry="2"/>
    <rect x="260" y="185" width="80" height="20" rx="2" ry="2"/>
    
    <!-- Row 5 (spacebar) -->
    <rect x="95" y="210" width="210" height="20" rx="10" ry="10"/>
  </g>
  
  <!-- Product name -->
  <text x="200" y="280" font-family="Arial, sans-serif" font-size="24" text-anchor="middle" fill="#333">
    MacBook Pro
  </text>
  <text x="200" y="310" font-family="Arial, sans-serif" font-size="18" text-anchor="middle" fill="#666">
    Keyboard
  </text>
</svg>
