<?xml version="1.0" encoding="UTF-8"?>
<svg width="200px" height="200px" viewBox="0 0 200 200" version="1.1" xmlns="http://www.w3.org/2000/svg" xmlns:xlink="http://www.w3.org/1999/xlink">
    <title>MDTS Chatbot Avatar</title>
    <defs>
        <linearGradient x1="0%" y1="0%" x2="100%" y2="100%" id="linearGradient-1">
            <stop stop-color="#0066CC" offset="0%"></stop>
            <stop stop-color="#0055AA" offset="100%"></stop>
        </linearGradient>
        <circle id="path-2" cx="100" cy="100" r="100"></circle>
    </defs>
    <g id="Chatbot-Avatar" stroke="none" stroke-width="1" fill="none" fill-rule="evenodd">
        <g id="Avatar">
            <mask id="mask-3" fill="white">
                <use xlink:href="#path-2"></use>
            </mask>
            <use id="Circle" fill="url(#linearGradient-1)" xlink:href="#path-2"></use>
            <g id="Robot-Face" mask="url(#mask-3)" fill="#FFFFFF">
                <g transform="translate(40.000000, 40.000000)">
                    <rect id="Head" x="0" y="0" width="120" height="100" rx="20"></rect>
                    <rect id="Antenna" x="55" y="-15" width="10" height="25" rx="5"></rect>
                    <circle id="Left-Eye" cx="40" cy="40" r="15"></circle>
                    <circle id="Right-Eye" cx="80" cy="40" r="15"></circle>
                    <circle id="Left-Pupil" fill="#0066CC" cx="40" cy="40" r="7"></circle>
                    <circle id="Right-Pupil" fill="#0066CC" cx="80" cy="40" r="7"></circle>
                    <rect id="Mouth" x="30" y="70" width="60" height="10" rx="5"></rect>
                </g>
            </g>
            <g id="Circuit-Lines" mask="url(#mask-3)" stroke="#FFFFFF" stroke-width="2" stroke-linecap="round">
                <path d="M20,160 L50,160" id="Line-1"></path>
                <path d="M70,160 L180,160" id="Line-2"></path>
                <path d="M20,180 L180,180" id="Line-3"></path>
                <path d="M50,160 L50,180" id="Line-4"></path>
                <path d="M70,160 L70,180" id="Line-5"></path>
                <path d="M100,160 L100,180" id="Line-6"></path>
                <path d="M130,160 L130,180" id="Line-7"></path>
                <path d="M160,160 L160,180" id="Line-8"></path>
            </g>
        </g>
    </g>
</svg>
