<?xml version="1.0" encoding="UTF-8" standalone="no"?>
<svg width="1200" height="600" viewBox="0 0 1200 600" xmlns="http://www.w3.org/2000/svg">
  <defs>
    <linearGradient id="bg-gradient" x1="0%" y1="0%" x2="100%" y2="100%">
      <stop offset="0%" style="stop-color:#0066cc;stop-opacity:1" />
      <stop offset="100%" style="stop-color:#001a33;stop-opacity:1" />
    </linearGradient>
  </defs>
  <rect width="1200" height="600" fill="url(#bg-gradient)"/>
  
  <!-- Phone outline -->
  <rect x="400" y="150" width="250" height="400" rx="20" ry="20" fill="#222" stroke="#444" stroke-width="5"/>
  <rect x="420" y="180" width="210" height="340" rx="5" ry="5" fill="#333"/>
  <circle cx="525" cy="550" r="15" fill="#444"/>
  
  <!-- Tools -->
  <rect x="700" y="250" width="150" height="20" rx="5" ry="5" fill="#ddd" transform="rotate(30 700 250)"/>
  <rect x="750" y="300" width="100" height="15" rx="5" ry="5" fill="#ddd" transform="rotate(-15 750 300)"/>
  <circle cx="800" cy="350" r="30" fill="#ddd" stroke="#aaa" stroke-width="3"/>
  <circle cx="800" cy="350" r="15" fill="#aaa"/>
  
  <!-- Circuit pattern -->
  <path d="M100,100 L200,100 L200,150 L300,150 L300,250 L250,250 L250,350 L150,350 L150,300 L100,300 Z" fill="none" stroke="#4dabf7" stroke-width="3"/>
  <path d="M900,400 L950,400 L950,500 L1050,500 L1050,450 L1100,450 L1100,350 L1000,350 L1000,300 L900,300 Z" fill="none" stroke="#4dabf7" stroke-width="3"/>
  
  <!-- Dots pattern -->
  <g fill="#4dabf7" opacity="0.5">
    <circle cx="150" cy="150" r="5"/>
    <circle cx="200" cy="200" r="5"/>
    <circle cx="250" cy="150" r="5"/>
    <circle cx="300" cy="200" r="5"/>
    <circle cx="350" cy="150" r="5"/>
    <circle cx="950" cy="150" r="5"/>
    <circle cx="1000" cy="200" r="5"/>
    <circle cx="1050" cy="150" r="5"/>
    <circle cx="900" cy="200" r="5"/>
    <circle cx="850" cy="150" r="5"/>
  </g>
</svg>
