<?xml version="1.0" encoding="UTF-8" standalone="no"?>
<svg width="400" height="400" viewBox="0 0 400 400" xmlns="http://www.w3.org/2000/svg">
  <rect width="400" height="400" fill="#f8f9fa"/>
  
  <!-- Screwdriver -->
  <rect x="100" y="150" width="200" height="30" rx="5" ry="5" fill="#444"/>
  <rect x="300" y="150" width="50" height="30" rx="5" ry="5" fill="#0066cc"/>
  <rect x="50" y="150" width="50" height="30" rx="15" ry="15" fill="#666"/>
  
  <!-- Pliers -->
  <path d="M150,250 L200,200 L250,250 L250,300 L150,300 Z" fill="#777"/>
  <rect x="150" y="300" width="30" height="50" rx="5" ry="5" fill="#444"/>
  <rect x="220" y="300" width="30" height="50" rx="5" ry="5" fill="#444"/>
  
  <!-- Spudger -->
  <rect x="100" y="100" width="200" height="10" rx="5" ry="5" fill="#222"/>
  <path d="M100,100 L80,105 L100,110 Z" fill="#222"/>
  
  <!-- Text -->
  <text x="200" y="50" font-family="Arial, sans-serif" font-size="24" text-anchor="middle" fill="#333">
    Professional
  </text>
  <text x="200" y="80" font-family="Arial, sans-serif" font-size="24" text-anchor="middle" fill="#333">
    Repair Tool Kit
  </text>
</svg>
