<?xml version="1.0" encoding="UTF-8"?>
<svg width="149px" height="63px" viewBox="0 0 149 63" version="1.1" xmlns="http://www.w3.org/2000/svg" xmlns:xlink="http://www.w3.org/1999/xlink">
    <title>Stripe Logo</title>
    <g id="Page-1" stroke="none" stroke-width="1" fill="none" fill-rule="evenodd">
        <g id="stripe-logo" transform="translate(0.000000, 0.000000)" fill-rule="nonzero">
            <path d="M14.5,20.8 C14.5,19.3 15.7,18.8 17.7,18.8 C20.5,18.8 24.1,19.7 27,21.2 L27,13.8 C23.8,12.5 20.6,12 17.7,12 C9.3,12 5,16.1 5,21.3 C5,30.1 17.2,28.5 17.2,32.9 C17.2,34.7 15.7,35.2 13.5,35.2 C10.4,35.2 6.3,34 3,32.2 L3,39.7 C6.5,41.3 10.1,42 13.5,42 C22.1,42 26.7,38 26.7,32.7 C26.7,23.3 14.5,25.2 14.5,20.8 Z" id="Path" fill="#6772E5"></path>
            <path d="M38.4,14.8 L38.4,13 L29.2,13 L29.2,41.3 L38.4,41.3 L38.4,24.8 C40.4,22.4 43.8,22.8 45,23.1 L45,13 C43.8,12.7 40.1,12.9 38.4,14.8 Z" id="Path" fill="#6772E5"></path>
            <path d="M54.7,7 L45.6,9.4 L45.6,13 L50.9,13 L50.9,32.8 C50.9,38.3 54.7,42 60.2,42 C62.7,42 64.5,41.6 65.5,41.1 L65.5,33.8 C64.6,34.2 60.9,35.3 60.9,31.1 L60.9,13 L65.5,13 L65.5,5.5 L60.9,5.5 L60.9,7 L54.7,7 Z" id="Path" fill="#6772E5"></path>
            <path d="M81.1,12 C77.4,12 75,13.5 73.6,14.6 L73.2,12.7 L64.9,12.7 L64.9,54 L74.1,51.6 L74.1,39.3 C75.5,40.2 77.5,41.3 81.1,41.3 C87.4,41.3 93.1,36.3 93.1,26.5 C93,17.3 87.3,12 81.1,12 Z M78.7,33.8 C76.7,33.8 75.3,33.2 74.1,32.3 L74.1,21.3 C75.4,20.3 76.8,19.8 78.7,19.8 C81.8,19.8 83.9,22.5 83.9,26.8 C83.9,31.2 81.8,33.8 78.7,33.8 Z" id="Shape" fill="#6772E5"></path>
            <path d="M108.7,12 C100.6,12 94.9,17.7 94.9,26.7 C94.9,36.3 101,41.3 109.4,41.3 C113.3,41.3 116.3,40.4 118.6,39.1 L118.6,32.1 C116.3,33.4 113.7,34.1 110.6,34.1 C107.3,34.1 104.6,33 104.3,29.5 L119.2,29.5 C119.3,28.9 119.3,28.2 119.3,27.2 C119.3,17.7 114.9,12 108.7,12 Z M104.2,23.7 C104.2,20.3 106.1,18.7 108.6,18.7 C111,18.7 112.8,20.3 112.8,23.7 L104.2,23.7 Z" id="Shape" fill="#6772E5"></path>
            <path d="M135.2,14.7 L134.7,12.7 L126.4,12.7 L126.4,41.3 L135.6,41.3 L135.6,22.5 C137.4,20 140.5,20.5 141.7,21 L141.7,12.7 C140.5,12.2 137,11.6 135.2,14.7 Z" id="Path" fill="#6772E5"></path>
            <path d="M148.8,5.5 L144.2,6.8 L144.2,12.6 L141.2,12.6 L141.2,19.5 L144.2,19.5 L144.2,31.5 C144.2,38 148.1,41.3 153.8,41.3 C155.7,41.3 157.2,41 158.1,40.6 L158.1,33.7 C157.5,33.9 153.8,34.7 153.8,30.7 L153.8,19.5 L158.1,19.5 L158.1,12.6 L153.8,12.6 L153.8,5.5 L148.8,5.5 Z" id="Path" fill="#6772E5"></path>
        </g>
    </g>
</svg>
