<?xml version="1.0" encoding="UTF-8"?>
<svg width="40px" height="40px" viewBox="0 0 40 40" version="1.1" xmlns="http://www.w3.org/2000/svg" xmlns:xlink="http://www.w3.org/1999/xlink">
    <title>Step 1</title>
    <g id="Step-1" stroke="none" stroke-width="1" fill="none" fill-rule="evenodd">
        <path d="M32,8 L8,8 C6.9,8 6,8.9 6,10 L6,30 C6,31.1 6.9,32 8,32 L32,32 C33.1,32 34,31.1 34,30 L34,10 C34,8.9 33.1,8 32,8 Z M32,30 L8,30 L8,10 L32,10 L32,30 Z" id="Shape" fill="#0066CC" fill-rule="nonzero"></path>
        <path d="M14,16 L26,16 C26.55,16 27,15.55 27,15 C27,14.45 26.55,14 26,14 L14,14 C13.45,14 13,14.45 13,15 C13,15.55 13.45,16 14,16 Z" id="Path" fill="#0066CC" fill-rule="nonzero"></path>
        <path d="M14,20 L26,20 C26.55,20 27,19.55 27,19 C27,18.45 26.55,18 26,18 L14,18 C13.45,18 13,18.45 13,19 C13,19.55 13.45,20 14,20 Z" id="Path" fill="#0066CC" fill-rule="nonzero"></path>
        <path d="M14,24 L26,24 C26.55,24 27,23.55 27,23 C27,22.45 26.55,22 26,22 L14,22 C13.45,22 13,22.45 13,23 C13,23.55 13.45,24 14,24 Z" id="Path" fill="#0066CC" fill-rule="nonzero"></path>
        <path d="M14,28 L20,28 C20.55,28 21,27.55 21,27 C21,26.45 20.55,26 20,26 L14,26 C13.45,26 13,26.45 13,27 C13,27.55 13.45,28 14,28 Z" id="Path" fill="#0066CC" fill-rule="nonzero"></path>
    </g>
</svg>
