<?xml version="1.0" encoding="UTF-8"?>
<svg width="40px" height="40px" viewBox="0 0 40 40" version="1.1" xmlns="http://www.w3.org/2000/svg" xmlns:xlink="http://www.w3.org/1999/xlink">
    <title>Step 3</title>
    <g id="Step-3" stroke="none" stroke-width="1" fill="none" fill-rule="evenodd">
        <path d="M28,8 L12,8 C9.79,8 8,9.79 8,12 L8,28 C8,30.21 9.79,32 12,32 L28,32 C30.21,32 32,30.21 32,28 L32,12 C32,9.79 30.21,8 28,8 Z M30,28 C30,29.1 29.1,30 28,30 L12,30 C10.9,30 10,29.1 10,28 L10,12 C10,10.9 10.9,10 12,10 L28,10 C29.1,10 30,10.9 30,12 L30,28 Z" id="Shape" fill="#0066CC" fill-rule="nonzero"></path>
        <path d="M20,15 C17.24,15 15,17.24 15,20 C15,22.76 17.24,25 20,25 C22.76,25 25,22.76 25,20 C25,17.24 22.76,15 20,15 Z M20,23 C18.35,23 17,21.65 17,20 C17,18.35 18.35,17 20,17 C21.65,17 23,18.35 23,20 C23,21.65 21.65,23 20,23 Z" id="Shape" fill="#0066CC" fill-rule="nonzero"></path>
        <path d="M20,19 C19.45,19 19,19.45 19,20 C19,20.55 19.45,21 20,21 C20.55,21 21,20.55 21,20 C21,19.45 20.55,19 20,19 Z" id="Path" fill="#0066CC" fill-rule="nonzero"></path>
        <path d="M20,14 C20.55,14 21,13.55 21,13 C21,12.45 20.55,12 20,12 C19.45,12 19,12.45 19,13 C19,13.55 19.45,14 20,14 Z" id="Path" fill="#0066CC" fill-rule="nonzero"></path>
        <path d="M20,28 C20.55,28 21,27.55 21,27 C21,26.45 20.55,26 20,26 C19.45,26 19,26.45 19,27 C19,27.55 19.45,28 20,28 Z" id="Path" fill="#0066CC" fill-rule="nonzero"></path>
        <path d="M13,20 C13,20.55 13.45,21 14,21 C14.55,21 15,20.55 15,20 C15,19.45 14.55,19 14,19 C13.45,19 13,19.45 13,20 Z" id="Path" fill="#0066CC" fill-rule="nonzero"></path>
        <path d="M26,20 C26,20.55 26.45,21 27,21 C27.55,21 28,20.55 28,20 C28,19.45 27.55,19 27,19 C26.45,19 26,19.45 26,20 Z" id="Path" fill="#0066CC" fill-rule="nonzero"></path>
        <path d="M22.59,17.41 C22.98,17.02 22.98,16.39 22.59,16 C22.2,15.61 21.57,15.61 21.18,16 C20.79,16.39 20.79,17.02 21.18,17.41 C21.57,17.8 22.2,17.8 22.59,17.41 Z" id="Path" fill="#0066CC" fill-rule="nonzero"></path>
        <path d="M22.59,22.59 C22.98,22.2 22.98,21.57 22.59,21.18 C22.2,20.79 21.57,20.79 21.18,21.18 C20.79,21.57 20.79,22.2 21.18,22.59 C21.57,22.98 22.2,22.98 22.59,22.59 Z" id="Path" fill="#0066CC" fill-rule="nonzero"></path>
        <path d="M18.83,22.59 C19.22,22.98 19.85,22.98 20.24,22.59 C20.63,22.2 20.63,21.57 20.24,21.18 C19.85,20.79 19.22,20.79 18.83,21.18 C18.44,21.57 18.44,22.2 18.83,22.59 Z" id="Path" fill="#0066CC" fill-rule="nonzero"></path>
        <path d="M18.83,17.41 C19.22,17.8 19.85,17.8 20.24,17.41 C20.63,17.02 20.63,16.39 20.24,16 C19.85,15.61 19.22,15.61 18.83,16 C18.44,16.39 18.44,17.02 18.83,17.41 Z" id="Path" fill="#0066CC" fill-rule="nonzero"></path>
    </g>
</svg>
