<?xml version="1.0" encoding="UTF-8"?>
<svg width="40px" height="40px" viewBox="0 0 40 40" version="1.1" xmlns="http://www.w3.org/2000/svg" xmlns:xlink="http://www.w3.org/1999/xlink">
    <title>Step 2</title>
    <g id="Step-2" stroke="none" stroke-width="1" fill="none" fill-rule="evenodd">
        <path d="M30,10 L10,10 C8.9,10 8,10.9 8,12 L8,28 C8,29.1 8.9,30 10,30 L30,30 C31.1,30 32,29.1 32,28 L32,12 C32,10.9 31.1,10 30,10 Z M30,28 L10,28 L10,12 L30,12 L30,28 Z" id="Shape" fill="#0066CC" fill-rule="nonzero"></path>
        <path d="M20,14 C17.24,14 15,16.24 15,19 C15,21.76 17.24,24 20,24 C22.76,24 25,21.76 25,19 C25,16.24 22.76,14 20,14 Z M20,22 C18.35,22 17,20.65 17,19 C17,17.35 18.35,16 20,16 C21.65,16 23,17.35 23,19 C23,20.65 21.65,22 20,22 Z" id="Shape" fill="#0066CC" fill-rule="nonzero"></path>
        <path d="M20,17 C18.9,17 18,17.9 18,19 C18,20.1 18.9,21 20,21 C21.1,21 22,20.1 22,19 C22,17.9 21.1,17 20,17 Z" id="Path" fill="#0066CC" fill-rule="nonzero"></path>
        <path d="M15,26 L25,26 C25.55,26 26,25.55 26,25 C26,24.45 25.55,24 25,24 L15,24 C14.45,24 14,24.45 14,25 C14,25.55 14.45,26 15,26 Z" id="Path" fill="#0066CC" fill-rule="nonzero"></path>
    </g>
</svg>
